<?xml version="1.0" standalone="no"?>
<!DOCTYPE svg PUBLIC "-//W3C//DTD SVG 20010904//EN"
 "http://www.w3.org/TR/2001/REC-SVG-20010904/DTD/svg10.dtd">
<svg version="1.0" xmlns="http://www.w3.org/2000/svg"
 width="75.000000pt" height="61.000000pt" viewBox="0 0 75.000000 61.000000"
 preserveAspectRatio="xMidYMid meet">

<g transform="translate(0.000000,61.000000) scale(0.100000,-0.100000)"
fill="#0e9390" stroke="none">
<path d="M272 518 c-9 -9 -12 -70 -12 -215 0 -196 1 -203 20 -203 19 0 20 7
20 215 0 118 -4 215 -8 215 -4 0 -13 -5 -20 -12z"/>
<path d="M320 380 l0 -150 35 0 35 0 0 119 0 120 30 -9 c25 -7 30 -6 30 8 0
12 -19 25 -58 40 -32 12 -61 22 -65 22 -4 0 -7 -67 -7 -150z"/>
<path d="M213 483 c-10 -3 -13 -51 -13 -189 0 -177 1 -184 20 -184 19 0 20 7
20 190 0 105 -3 190 -7 189 -5 0 -14 -3 -20 -6z"/>
<path d="M153 443 c-22 -15 -23 -21 -23 -169 l0 -154 25 0 25 0 0 170 c0 94
-1 170 -2 169 -2 0 -13 -7 -25 -16z"/>
<path d="M490 450 l-25 -6 23 -8 c24 -8 37 -3 31 12 -2 4 -15 5 -29 2z"/>
<path d="M533 430 c-6 -23 -10 -23 -95 -4 -27 6 -28 5 -28 -38 l0 -45 57 -12
c94 -19 93 -19 93 48 0 61 -17 91 -27 51z"/>
<path d="M580 314 l0 -117 -130 7 -130 7 0 -56 0 -56 138 6 c75 4 143 8 150
10 9 3 12 43 12 154 0 126 -2 150 -16 155 -9 3 -18 6 -20 6 -2 0 -4 -52 -4
-116z"/>
<path d="M410 275 c0 -38 3 -45 20 -45 17 0 20 7 20 39 0 26 -5 41 -16 45 -24
9 -24 9 -24 -39z"/>
<path d="M472 263 c3 -37 4 -38 46 -41 42 -3 42 -3 42 31 0 31 -4 35 -31 41
-57 11 -60 9 -57 -31z"/>
</g>
</svg>
