<?xml version="1.0" standalone="no"?>
<!DOCTYPE svg PUBLIC "-//W3C//DTD SVG 20010904//EN"
 "http://www.w3.org/TR/2001/REC-SVG-20010904/DTD/svg10.dtd">
<svg version="1.0" xmlns="http://www.w3.org/2000/svg"
 width="164.000000pt" height="61.000000pt" viewBox="0 0 164.000000 61.000000"
 preserveAspectRatio="xMidYMid meet">

<g transform="translate(0.000000,61.000000) scale(0.100000,-0.100000)"
fill="#000000" stroke="none">
<path d="M327 507 c-16 -11 -17 -33 -15 -212 3 -181 5 -200 21 -203 16 -3 17
12 17 212 0 119 -1 216 -3 216 -2 0 -11 -6 -20 -13z"/>
<path d="M370 370 l0 -150 35 0 35 0 0 116 0 116 25 -4 c16 -4 25 -1 25 8 0
16 -3 18 -68 43 l-52 21 0 -150z"/>
<path d="M262 468 c-8 -8 -12 -65 -12 -190 0 -171 1 -178 20 -178 19 0 20 7
20 190 0 105 -4 190 -8 190 -4 0 -13 -5 -20 -12z"/>
<path d="M203 433 c-10 -3 -13 -46 -13 -164 0 -152 1 -159 20 -159 19 0 20 7
20 165 0 91 -3 165 -7 164 -5 0 -14 -3 -20 -6z"/>
<path d="M535 430 c3 -5 13 -10 21 -10 8 0 14 5 14 10 0 6 -9 10 -21 10 -11 0
-17 -4 -14 -10z"/>
<path d="M460 384 l0 -51 51 -11 c89 -21 89 -21 88 51 -1 34 -4 52 -6 40 -5
-24 -36 -32 -48 -13 -3 6 -19 10 -34 10 -15 0 -32 5 -39 12 -9 9 -12 1 -12
-38z"/>
<path d="M630 295 l0 -117 -32 5 c-18 4 -77 9 -131 13 l-98 7 3 -54 3 -54 105
3 c58 2 124 5 148 9 l43 5 -3 147 c-3 130 -5 146 -20 149 -16 3 -18 -7 -18
-113z"/>
<path d="M762 374 c-43 -30 -21 -71 51 -94 38 -12 46 -27 25 -48 -18 -18 -39
-15 -65 10 -30 28 -50 13 -27 -20 12 -17 25 -22 59 -22 51 0 77 21 73 59 -2
21 -14 31 -56 50 -29 14 -51 30 -49 35 5 15 47 20 60 7 16 -16 37 -13 37 4 0
16 -38 35 -68 35 -10 0 -28 -7 -40 -16z"/>
<path d="M965 378 c-33 -18 -45 -40 -45 -84 0 -62 29 -94 86 -94 66 0 84 13
84 60 0 40 0 40 -40 40 -29 0 -40 -4 -40 -15 0 -8 9 -15 19 -15 27 0 34 -15
15 -34 -20 -20 -43 -20 -72 0 -27 18 -31 84 -6 108 20 21 58 20 79 0 13 -13
19 -14 28 -5 9 10 7 17 -12 32 -26 21 -65 24 -96 7z"/>
<path d="M1130 296 l0 -96 55 0 c73 0 95 21 95 89 0 69 -20 90 -92 98 l-58 6
0 -97z m104 48 c19 -18 21 -85 4 -102 -7 -7 -25 -12 -40 -12 -28 0 -28 0 -28
65 0 62 1 65 24 65 14 0 32 -7 40 -16z"/>
<path d="M460 265 c0 -38 3 -45 20 -45 17 0 20 7 20 39 0 26 -5 41 -16 45 -24
9 -24 9 -24 -39z"/>
<path d="M522 254 c3 -37 5 -39 41 -42 36 -3 37 -3 37 32 0 28 -4 36 -17 36
-10 0 -28 3 -41 6 -22 6 -23 4 -20 -32z"/>
</g>
</svg>
